<?xml version="1.0" encoding="UTF-8" standalone="no"?>
<!DOCTYPE svg PUBLIC "-//W3C//DTD SVG 1.1//EN"
 "http://www.w3.org/Graphics/SVG/1.1/DTD/svg11.dtd">
<!-- Generated by graphviz version 2.40.1 (20161225.0304)
 -->
<!-- Title: Call Graph Pages: 1 -->
<svg width="1036pt" height="141pt"
 viewBox="0.00 0.00 1036.00 141.00" xmlns="http://www.w3.org/2000/svg" xmlns:xlink="http://www.w3.org/1999/xlink">
<g id="graph0" class="graph" transform="scale(1 1) rotate(0) translate(4 137)">
<title>Call Graph</title>
<polygon fill="#ffffff" stroke="transparent" points="-4,4 -4,-137 1032,-137 1032,4 -4,4"/>
<text text-anchor="middle" x="514" y="-7.8" font-family="Times,serif" font-size="14.00" fill="#000000">Call Graph</text>
<!-- Node0x55d628bf9220 -->
<g id="node1" class="node">
<title>Node0x55d628bf9220</title>
<path fill="none" stroke="#000000" d="M12,-23.5C12,-23.5 185,-23.5 185,-23.5 191,-23.5 197,-29.5 197,-35.5 197,-35.5 197,-47.5 197,-47.5 197,-53.5 191,-59.5 185,-59.5 185,-59.5 12,-59.5 12,-59.5 6,-59.5 0,-53.5 0,-47.5 0,-47.5 0,-35.5 0,-35.5 0,-29.5 6,-23.5 12,-23.5"/>
<text text-anchor="middle" x="98.5" y="-37.8" font-family="Times,serif" font-size="14.00" fill="#000000">CallGraphNode ID: 4 {fun: sqrt}</text>
</g>
<!-- Node0x55d628bfa460 -->
<g id="node2" class="node">
<title>Node0x55d628bfa460</title>
<path fill="none" stroke="#000000" d="M227,-23.5C227,-23.5 464,-23.5 464,-23.5 470,-23.5 476,-29.5 476,-35.5 476,-35.5 476,-47.5 476,-47.5 476,-53.5 470,-59.5 464,-59.5 464,-59.5 227,-59.5 227,-59.5 221,-59.5 215,-53.5 215,-47.5 215,-47.5 215,-35.5 215,-35.5 215,-29.5 221,-23.5 227,-23.5"/>
<text text-anchor="middle" x="345.5" y="-37.8" font-family="Times,serif" font-size="14.00" fill="#000000">CallGraphNode ID: 3 {fun: __isoc99_scanf}</text>
</g>
<!-- Node0x55d628be9250 -->
<g id="node3" class="node">
<title>Node0x55d628be9250</title>
<path fill="none" stroke="#000000" d="M506,-23.5C506,-23.5 689,-23.5 689,-23.5 695,-23.5 701,-29.5 701,-35.5 701,-35.5 701,-47.5 701,-47.5 701,-53.5 695,-59.5 689,-59.5 689,-59.5 506,-59.5 506,-59.5 500,-59.5 494,-53.5 494,-47.5 494,-47.5 494,-35.5 494,-35.5 494,-29.5 500,-23.5 506,-23.5"/>
<text text-anchor="middle" x="597.5" y="-37.8" font-family="Times,serif" font-size="14.00" fill="#000000">CallGraphNode ID: 2 {fun: printf}</text>
</g>
<!-- Node0x55d628bf4f90 -->
<g id="node4" class="node">
<title>Node0x55d628bf4f90</title>
<polygon fill="none" stroke="#000000" points="740.5,-132.5 202.5,-132.5 202.5,-96.5 740.5,-96.5 740.5,-132.5"/>
<text text-anchor="middle" x="471.5" y="-110.8" font-family="Times,serif" font-size="14.00" fill="#000000">{CallGraphNode ID: 0 {fun: main}|{&lt;s0&gt;1|&lt;s1&gt;2|&lt;s2&gt;3|&lt;s3&gt;4|&lt;s4&gt;5|&lt;s5&gt;6|&lt;s6&gt;7|&lt;s7&gt;8}}</text>
</g>
<!-- Node0x55d628bf4f90&#45;&gt;Node0x55d628bf9220 -->
<g id="edge3" class="edge">
<title>Node0x55d628bf4f90:s2&#45;&gt;Node0x55d628bf9220</title>
<path fill="none" stroke="#000000" d="M367.4663,-96.4551C311.2463,-85.8623 242.621,-72.4555 188.6779,-61.5358"/>
<polygon fill="#000000" stroke="#000000" points="189.2792,-58.0865 178.7827,-59.527 187.8865,-64.9466 189.2792,-58.0865"/>
</g>
<!-- Node0x55d628bf4f90&#45;&gt;Node0x55d628bf9220 -->
<g id="edge4" class="edge">
<title>Node0x55d628bf4f90:s3&#45;&gt;Node0x55d628bf9220</title>
<path fill="none" stroke="#000000" d="M379.2977,-96.4551C325.061,-85.8404 256.3854,-72.3998 200.5275,-61.4678"/>
<polygon fill="#000000" stroke="#000000" points="201.0967,-58.0129 190.6106,-59.527 199.7522,-64.8826 201.0967,-58.0129"/>
</g>
<!-- Node0x55d628bf4f90&#45;&gt;Node0x55d628bf9220 -->
<g id="edge7" class="edge">
<title>Node0x55d628bf4f90:s6&#45;&gt;Node0x55d628bf9220</title>
<path fill="none" stroke="#000000" d="M391.1292,-96.4551C337.316,-85.4991 266.0091,-71.5326 207.1796,-60.4214"/>
<polygon fill="#000000" stroke="#000000" points="207.5757,-56.9345 197.1006,-58.5228 206.2798,-63.8135 207.5757,-56.9345"/>
</g>
<!-- Node0x55d628bf4f90&#45;&gt;Node0x55d628bfa460 -->
<g id="edge2" class="edge">
<title>Node0x55d628bf4f90:s1&#45;&gt;Node0x55d628bfa460</title>
<path fill="none" stroke="#000000" d="M440.3539,-96.4551C423.8465,-86.8912 403.3796,-75.0334 385.6876,-64.7833"/>
<polygon fill="#000000" stroke="#000000" points="387.1318,-61.575 376.7245,-59.5904 383.6226,-67.6319 387.1318,-61.575"/>
</g>
<!-- Node0x55d628bf4f90&#45;&gt;Node0x55d628be9250 -->
<g id="edge1" class="edge">
<title>Node0x55d628bf4f90:s0&#45;&gt;Node0x55d628be9250</title>
<path fill="none" stroke="#000000" d="M484.8989,-96.4551C498.8192,-86.7157 519.3485,-74.5975 539.3746,-64.2207"/>
<polygon fill="#000000" stroke="#000000" points="541.176,-67.2317 548.5149,-59.5904 538.0126,-60.9873 541.176,-67.2317"/>
</g>
<!-- Node0x55d628bf4f90&#45;&gt;Node0x55d628be9250 -->
<g id="edge5" class="edge">
<title>Node0x55d628bf4f90:s4&#45;&gt;Node0x55d628be9250</title>
<path fill="none" stroke="#000000" d="M496.7303,-96.4551C512.4346,-86.8035 532.9906,-74.8156 551.4768,-64.5016"/>
<polygon fill="#000000" stroke="#000000" points="553.299,-67.4935 560.3553,-59.5904 549.9107,-61.3682 553.299,-67.4935"/>
</g>
<!-- Node0x55d628bf4f90&#45;&gt;Node0x55d628be9250 -->
<g id="edge6" class="edge">
<title>Node0x55d628bf4f90:s5&#45;&gt;Node0x55d628be9250</title>
<path fill="none" stroke="#000000" d="M508.5618,-96.4551C525.8551,-86.979 546.2458,-75.2508 563.183,-65.0658"/>
<polygon fill="#000000" stroke="#000000" points="565.4666,-67.7738 572.1958,-59.5904 561.832,-61.7913 565.4666,-67.7738"/>
</g>
<!-- Node0x55d628bf4f90&#45;&gt;Node0x55d628be9250 -->
<g id="edge8" class="edge">
<title>Node0x55d628bf4f90:s7&#45;&gt;Node0x55d628be9250</title>
<path fill="none" stroke="#000000" d="M520.3933,-96.4551C539.3836,-87.0667 559.8639,-75.4678 575.4635,-65.3491"/>
<polygon fill="#000000" stroke="#000000" points="577.6869,-68.072 584.0362,-59.5904 573.7835,-62.2613 577.6869,-68.072"/>
</g>
<!-- Node0x55d628bf8e20 -->
<g id="node5" class="node">
<title>Node0x55d628bf8e20</title>
<path fill="none" stroke="#000000" d="M771,-96.5C771,-96.5 1016,-96.5 1016,-96.5 1022,-96.5 1028,-102.5 1028,-108.5 1028,-108.5 1028,-120.5 1028,-120.5 1028,-126.5 1022,-132.5 1016,-132.5 1016,-132.5 771,-132.5 771,-132.5 765,-132.5 759,-126.5 759,-120.5 759,-120.5 759,-108.5 759,-108.5 759,-102.5 765,-96.5 771,-96.5"/>
<text text-anchor="middle" x="893.5" y="-110.8" font-family="Times,serif" font-size="14.00" fill="#000000">CallGraphNode ID: 1 {fun: llvm.dbg.declare}</text>
</g>
</g>
</svg>