<svg xmlns="http://www.w3.org/2000/svg" viewBox="0 0 128 128" width="64px" height="64px"><path fill="#fff" d="M64 9A55 55 0 1 0 64 119A55 55 0 1 0 64 9Z"/><path fill="#00d6c6" d="M64 24A40 40 0 1 0 64 104A40 40 0 1 0 64 24Z"/><path fill="#fff" d="M81.1 78.1c-.8 0-1.6-.3-2.2-1-1.1-1.2-1-3.1.2-4.2l9.7-8.9-9.7-8.9c-1.2-1.1-1.3-3-.2-4.2 1.1-1.2 3-1.3 4.2-.2l12.1 11.1c.6.6 1 1.4 1 2.2s-.4 1.6-1 2.2L83.2 77.3C82.6 77.8 81.9 78.1 81.1 78.1zM46.9 78.1c-.7 0-1.5-.3-2-.8L32.8 66.2c-.6-.6-1-1.4-1-2.2s.4-1.6 1-2.2l12.1-11.1c1.2-1.1 3.1-1 4.2.2 1.1 1.2 1 3.1-.2 4.2L39.2 64l9.7 8.9c1.2 1.1 1.3 3 .2 4.2C48.5 77.7 47.7 78.1 46.9 78.1zM56 91c-.3 0-.6 0-.9-.2-1.6-.5-2.4-2.2-1.9-3.8l16-48c.5-1.6 2.2-2.4 3.8-1.9 1.6.5 2.4 2.2 1.9 3.8l-16 48C58.4 90.2 57.3 91 56 91z"/><path fill="#444b54" d="M64,122C32,122,6,96,6,64S32,6,64,6s58,26,58,58S96,122,64,122z M64,12c-28.7,0-52,23.3-52,52s23.3,52,52,52 s52-23.3,52-52S92.7,12,64,12z"/></svg>