<svg t="1562552620031" class="icon" viewBox="0 0 1024 1024" version="1.1" xmlns="http://www.w3.org/2000/svg" p-id="7969" width="200" height="200"><path d="M280 752h80c4.4 0 8-3.6 8-8V280c0-4.4-3.6-8-8-8h-80c-4.4 0-8 3.6-8 8v464c0 4.4 3.6 8 8 8zM472 472h80c4.4 0 8-3.6 8-8V280c0-4.4-3.6-8-8-8h-80c-4.4 0-8 3.6-8 8v184c0 4.4 3.6 8 8 8zM664 544h80c4.4 0 8-3.6 8-8V280c0-4.4-3.6-8-8-8h-80c-4.4 0-8 3.6-8 8v256c0 4.4 3.6 8 8 8z" p-id="7970" fill="#ffffff"></path><path d="M880 112H144c-17.7 0-32 14.3-32 32v736c0 17.7 14.3 32 32 32h736c17.7 0 32-14.3 32-32V144c0-17.7-14.3-32-32-32z m-40 728H184V184h656v656z" p-id="7971" fill="#ffffff"></path></svg>