<svg t="1561658335657" class="icon" viewBox="0 0 1024 1024" version="1.1" xmlns="http://www.w3.org/2000/svg" p-id="12398" width="200" height="200"><path d="M988.69 79.448H35.31C15.808 79.448 0 95.256 0 114.758v564.966h1024V114.758c0-19.502-15.808-35.31-35.31-35.31z m-17.656 547.31H52.966V132.414h918.068v494.344z" fill="#ffffff" p-id="12399"></path><path d="M406.066 353.104a8.822 8.822 0 0 1 8.828 8.828h26.482v-26.482h-35.31a8.822 8.822 0 0 1-8.828-8.828 8.822 8.822 0 0 1 8.828-8.828h35.31v-114.758H282.48v158.896h114.758a8.824 8.824 0 0 1 8.828-8.828z" fill="#ffffff" p-id="12400"></path><path d="M52.966 626.758h918.068V132.414H52.966v494.344z m388.412-44.138h-35.31c-4.88 0-8.828-3.948-8.828-8.828s3.948-8.828 8.828-8.828h35.31c4.88 0 8.828 3.948 8.828 8.828s-3.95 8.828-8.828 8.828z m-35.312-88.276a8.822 8.822 0 0 1 8.828 8.828v35.31c0 4.88-3.948 8.828-8.828 8.828s-8.828-3.948-8.828-8.828v-35.31a8.824 8.824 0 0 1 8.828-8.828z m-8.826-26.482v-35.31c0-4.88 3.948-8.828 8.828-8.828s8.828 3.948 8.828 8.828v35.31c0 4.88-3.948 8.828-8.828 8.828s-8.828-3.948-8.828-8.828z m114.758 114.758h-35.31c-4.88 0-8.828-3.948-8.828-8.828s3.948-8.828 8.828-8.828h35.31c4.88 0 8.828 3.948 8.828 8.828s-3.948 8.828-8.828 8.828z m150.068-44.138c0 4.88-3.948 8.828-8.828 8.828s-8.828-3.948-8.828-8.828v-35.31c0-4.88 3.948-8.828 8.828-8.828s8.828 3.948 8.828 8.828v35.31z m0-70.62c0 4.88-3.948 8.828-8.828 8.828s-8.828-3.948-8.828-8.828v-35.31c0-4.88 3.948-8.828 8.828-8.828s8.828 3.948 8.828 8.828v35.31z m0-70.62c0 4.88-3.948 8.828-8.828 8.828s-8.828-3.948-8.828-8.828v-35.31c0-4.88 3.948-8.828 8.828-8.828s8.828 3.948 8.828 8.828v35.31z m79.452 17.654V185.38a17.658 17.658 0 0 1 17.656-17.656h158.896a17.658 17.658 0 0 1 17.656 17.656v388.414a17.658 17.658 0 0 1-17.656 17.656h-158.896a17.658 17.658 0 0 1-17.656-17.656v-158.898z m-123.59-97.102h35.31a8.822 8.822 0 0 1 8.828 8.828 8.822 8.822 0 0 1-8.828 8.828h-35.31a8.822 8.822 0 0 1-8.828-8.828 8.824 8.824 0 0 1 8.828-8.828z m0 247.172h35.31c4.88 0 8.828 3.948 8.828 8.828s-3.948 8.828-8.828 8.828h-35.31c-4.88 0-8.828-3.948-8.828-8.828s3.95-8.828 8.828-8.828z m-70.62-247.172h35.31a8.822 8.822 0 0 1 8.828 8.828 8.822 8.822 0 0 1-8.828 8.828h-35.31a8.822 8.822 0 0 1-8.828-8.828 8.822 8.822 0 0 1 8.828-8.828z m0 247.172h35.31c4.88 0 8.828 3.948 8.828 8.828s-3.948 8.828-8.828 8.828h-35.31c-4.88 0-8.828-3.948-8.828-8.828s3.948-8.828 8.828-8.828zM247.17 185.38a17.652 17.652 0 0 1 17.656-17.656h194.206a17.652 17.652 0 0 1 17.656 17.656v132.414h35.31a8.822 8.822 0 0 1 8.828 8.828 8.822 8.822 0 0 1-8.828 8.828h-35.31v44.138c0 1.914-0.314 3.754-0.876 5.478l46.33 41.508c3.838 3.438 2.838 9.694-1.88 11.768l-17.556 7.706 15.68 35.714a8.84 8.84 0 0 1-4.536 11.636 8.914 8.914 0 0 1-3.542 0.742 8.826 8.826 0 0 1-8.094-5.276l-15.682-35.718-17.562 7.708c-4.718 2.072-10.002-1.428-9.934-6.58l0.742-57.068c-0.25 0.012-0.494 0.038-0.746 0.038h-44.138c0 4.88-3.948 8.828-8.828 8.828s-8.828-3.948-8.828-8.828h-132.414a17.652 17.652 0 0 1-17.656-17.656V185.38h0.002z m-158.894 0a17.658 17.658 0 0 1 17.656-17.656h52.966a17.658 17.658 0 0 1 17.656 17.656v388.414a17.658 17.658 0 0 1-17.656 17.656H105.932a17.658 17.658 0 0 1-17.656-17.656V185.38z" fill="#ffffff" p-id="12401"></path><path d="M0 750.344c0 19.502 15.808 35.31 35.31 35.31h953.378c19.502 0 35.31-15.808 35.31-35.31v-70.62H0v70.62z m512-44.138c14.626 0 26.482 11.858 26.482 26.482s-11.858 26.482-26.482 26.482c-14.626 0-26.482-11.858-26.482-26.482s11.856-26.482 26.482-26.482z" fill="#ffffff" p-id="12402"></path><path d="M355.31 909.242h313.38l-11.034-88.276H366.344z" fill="#ffffff" p-id="12403"></path><path d="M353.104 909.242a17.658 17.658 0 0 0 0 35.312h317.794a17.658 17.658 0 0 0 0-35.312H353.104z" fill="#ffffff" p-id="12404"></path><path d="M366.344 820.966h291.312l-4.414-35.31H370.758z" fill="#ffffff" p-id="12405"></path><path d="M512 732.69m-26.482 0a26.482 26.482 0 1 0 52.964 0 26.482 26.482 0 1 0-52.964 0Z" fill="#ffffff" p-id="12406"></path><path d="M105.932 591.448h52.966a17.658 17.658 0 0 0 17.656-17.656V185.38a17.658 17.658 0 0 0-17.656-17.656H105.932a17.658 17.658 0 0 0-17.656 17.656v388.414a17.654 17.654 0 0 0 17.656 17.654z m17.654-388.414h17.656a17.658 17.658 0 0 1 0 35.312h-17.656a17.658 17.658 0 0 1 0-35.312z m0 52.966h17.656a17.658 17.658 0 0 1 0 35.312h-17.656a17.658 17.658 0 0 1 0-35.312z m0 52.966h17.656a17.658 17.658 0 0 1 0 35.312h-17.656a17.658 17.658 0 0 1 0-35.312z m0 52.966h17.656a17.658 17.658 0 0 1 0 35.312h-17.656a17.658 17.658 0 0 1 0-35.312z m0 52.964h17.656a17.658 17.658 0 0 1 0 35.312h-17.656a17.658 17.658 0 0 1 0-35.312z m-17.654 88.276a17.658 17.658 0 0 1 17.656-17.656h17.656a17.658 17.658 0 0 1 17.656 17.656v35.31a17.658 17.658 0 0 1-17.656 17.656h-17.656a17.658 17.658 0 0 1-17.656-17.656v-35.31z" fill="#ffffff" p-id="12407"></path><path d="M123.586 238.344h17.656a17.658 17.658 0 0 0 0-35.312h-17.656a17.658 17.658 0 0 0 0 35.312z" fill="#ffffff" p-id="12408"></path><path d="M123.586 291.31h17.656a17.658 17.658 0 0 0 0-35.312h-17.656a17.658 17.658 0 0 0 0 35.312z" fill="#ffffff" p-id="12409"></path><path d="M123.586 344.276h17.656a17.658 17.658 0 0 0 0-35.312h-17.656a17.658 17.658 0 0 0 0 35.312zM123.586 397.242h17.656a17.658 17.658 0 0 0 0-35.312h-17.656a17.658 17.658 0 0 0 0 35.312zM123.586 450.206h17.656a17.658 17.658 0 0 0 0-35.312h-17.656a17.658 17.658 0 0 0 0 35.312z" fill="#ffffff" p-id="12410"></path><path d="M123.586 556.138h17.656a17.658 17.658 0 0 0 17.656-17.656v-35.31a17.658 17.658 0 0 0-17.656-17.656h-17.656a17.658 17.658 0 0 0-17.656 17.656v35.31a17.658 17.658 0 0 0 17.656 17.656z" fill="#ffffff" p-id="12411"></path><path d="M935.724 185.38a17.658 17.658 0 0 0-17.656-17.656h-158.896a17.658 17.658 0 0 0-17.656 17.656v105.932h194.206V185.38z m-26.482 88.276H768a8.828 8.828 0 1 1 0-17.656H909.242a8.828 8.828 0 1 1 0 17.656z m0-35.312H768a8.828 8.828 0 1 1 0-17.656h141.244a8.828 8.828 0 1 1-0.002 17.656z m0-35.31H768a8.828 8.828 0 1 1 0-17.656h141.244a8.828 8.828 0 1 1-0.002 17.656zM759.172 591.448h158.896a17.658 17.658 0 0 0 17.656-17.656v-158.896h-194.206v158.896a17.654 17.654 0 0 0 17.654 17.656z m79.448-158.896h70.62a8.828 8.828 0 1 1 0 17.656h-70.62a8.828 8.828 0 1 1 0-17.656z m0 35.31h70.62a8.828 8.828 0 1 1 0 17.656h-70.62a8.828 8.828 0 1 1 0-17.656z m0 35.31h70.62a8.828 8.828 0 1 1 0 17.656h-70.62a8.828 8.828 0 1 1 0-17.656z m0 35.31h70.62a8.828 8.828 0 1 1 0 17.656h-70.62a8.828 8.828 0 1 1 0-17.656z m-35.31-105.93a8.828 8.828 0 1 1 0 17.656 8.828 8.828 0 1 1 0-17.656z m0 35.31a8.828 8.828 0 1 1 0 17.656 8.828 8.828 0 1 1 0-17.656z m0 35.31a8.828 8.828 0 1 1 0 17.656 8.828 8.828 0 1 1 0-17.656z m0 35.31a8.828 8.828 0 1 1 0 17.656 8.828 8.828 0 1 1 0-17.656zM768 432.552a8.828 8.828 0 1 1 0 17.656 8.828 8.828 0 1 1 0-17.656z m0 35.31a8.828 8.828 0 1 1 0 17.656 8.828 8.828 0 1 1 0-17.656z m0 35.31a8.828 8.828 0 1 1 0 17.656 8.828 8.828 0 1 1 0-17.656z m0 35.31a8.828 8.828 0 1 1 0 17.656 8.828 8.828 0 1 1 0-17.656z" fill="#ffffff" p-id="12412"></path><path d="M935.724 291.31h-194.206v123.586h194.206v-123.586z m-150.068 105.932H768a8.828 8.828 0 1 1 0-17.656h17.656a8.828 8.828 0 1 1 0 17.656z m0-35.31H768a8.828 8.828 0 1 1 0-17.656h17.656a8.828 8.828 0 1 1 0 17.656z m0-35.312H768a8.828 8.828 0 1 1 0-17.656h17.656a8.828 8.828 0 1 1 0 17.656z m123.586 70.622h-88.276a8.828 8.828 0 1 1 0-17.656h88.276a8.828 8.828 0 1 1 0 17.656z m0-35.31h-88.276a8.828 8.828 0 1 1 0-17.656h88.276a8.828 8.828 0 1 1 0 17.656z m0-35.312h-88.276a8.828 8.828 0 1 1 0-17.656h88.276a8.828 8.828 0 1 1 0 17.656zM909.242 185.38h-105.932a8.828 8.828 0 1 1 0 17.656h105.932a8.828 8.828 0 1 0 0-17.656zM776.828 194.206a8.828 8.828 0 0 1 8.828-8.828H768a8.828 8.828 0 1 0 0 17.656h17.656a8.828 8.828 0 0 1-8.828-8.828zM909.242 256h-70.62a8.828 8.828 0 1 1 0 17.656h70.62a8.828 8.828 0 1 0 0-17.656zM812.138 264.828a8.828 8.828 0 0 1 8.828-8.828H768a8.828 8.828 0 1 0 0 17.656h52.966a8.828 8.828 0 0 1-8.828-8.828z" fill="#ffffff" p-id="12413"></path><path d="M909.242 308.966h-88.276a8.828 8.828 0 1 0 0 17.656h88.276a8.828 8.828 0 1 0 0-17.656z" fill="#ffffff" p-id="12414"></path><path d="M865.104 229.518a8.828 8.828 0 0 1 8.828-8.828H768a8.828 8.828 0 1 0 0 17.656h105.932a8.83 8.83 0 0 1-8.828-8.828zM909.242 220.69h-17.656a8.828 8.828 0 1 1 0 17.656h17.656a8.828 8.828 0 1 0 0-17.656z" fill="#ffffff" p-id="12415"></path><path d="M812.138 194.206a8.828 8.828 0 0 0-8.828-8.828h-17.656a8.828 8.828 0 1 0 0 17.656h17.656a8.828 8.828 0 0 0 8.828-8.828zM847.448 264.828A8.828 8.828 0 0 0 838.62 256h-17.656a8.828 8.828 0 1 0 0 17.656h17.656a8.828 8.828 0 0 0 8.828-8.828zM785.656 308.966H768a8.828 8.828 0 1 0 0 17.656h17.656a8.828 8.828 0 1 0 0-17.656z" fill="#ffffff" p-id="12416"></path><path d="M909.242 344.276h-88.276a8.828 8.828 0 1 0 0 17.656h88.276a8.828 8.828 0 1 0 0-17.656z" fill="#ffffff" p-id="12417"></path><path d="M785.656 344.276H768a8.828 8.828 0 1 0 0 17.656h17.656a8.828 8.828 0 1 0 0-17.656z" fill="#ffffff" p-id="12418"></path><path d="M909.242 379.586h-88.276a8.828 8.828 0 1 0 0 17.656h88.276a8.828 8.828 0 1 0 0-17.656z" fill="#ffffff" p-id="12419"></path><path d="M785.656 379.586H768a8.828 8.828 0 1 0 0 17.656h17.656a8.828 8.828 0 1 0 0-17.656zM768 485.518a8.828 8.828 0 1 0 0-17.656 8.828 8.828 0 1 0 0 17.656zM768 450.206a8.828 8.828 0 1 0 0-17.656 8.828 8.828 0 1 0 0 17.656zM768 556.138a8.828 8.828 0 1 0 0-17.656 8.828 8.828 0 1 0 0 17.656zM768 520.828a8.828 8.828 0 1 0 0-17.656 8.828 8.828 0 1 0 0 17.656z" fill="#ffffff" p-id="12420"></path><path d="M803.31 485.518a8.828 8.828 0 1 0 0-17.656 8.828 8.828 0 1 0 0 17.656zM803.31 450.206a8.828 8.828 0 1 0 0-17.656 8.828 8.828 0 1 0 0 17.656zM803.31 556.138a8.828 8.828 0 1 0 0-17.656 8.828 8.828 0 1 0 0 17.656zM803.31 520.828a8.828 8.828 0 1 0 0-17.656 8.828 8.828 0 1 0 0 17.656zM838.62 485.518h70.62a8.828 8.828 0 1 0 0-17.656h-70.62a8.828 8.828 0 1 0 0 17.656zM838.62 450.206h70.62a8.828 8.828 0 1 0 0-17.656h-70.62a8.828 8.828 0 1 0 0 17.656zM838.62 556.138h70.62a8.828 8.828 0 1 0 0-17.656h-70.62a8.828 8.828 0 1 0 0 17.656zM838.62 520.828h70.62a8.828 8.828 0 1 0 0-17.656h-70.62a8.828 8.828 0 1 0 0 17.656z" fill="#ffffff" p-id="12421"></path><path d="M900.414 229.518a8.828 8.828 0 0 0-8.828-8.828h-17.656a8.828 8.828 0 1 0 0 17.656h17.656a8.83 8.83 0 0 0 8.828-8.828z" fill="#ffffff" p-id="12422"></path><path d="M264.826 397.242h132.414v-35.31h-114.76v-158.896h158.896v114.758a8.822 8.822 0 0 1 8.828 8.828 8.822 8.822 0 0 1-8.828 8.828v26.482h-26.482v35.31h44.138c0.252 0 0.496-0.026 0.746-0.038l0.14-10.61c0.08-6.084 7.282-9.244 11.814-5.186l4.082 3.656a17.654 17.654 0 0 0 0.876-5.478v-44.138a8.822 8.822 0 0 1-8.828-8.828 8.822 8.822 0 0 1 8.828-8.828V185.38a17.652 17.652 0 0 0-17.656-17.656h-194.206a17.652 17.652 0 0 0-17.656 17.656v194.206a17.648 17.648 0 0 0 17.654 17.656z" fill="#ffffff" p-id="12423"></path><path d="M406.066 476.69a8.822 8.822 0 0 0 8.828-8.828v-35.31c0-4.88-3.948-8.828-8.828-8.828s-8.828 3.948-8.828 8.828v35.31a8.824 8.824 0 0 0 8.828 8.828zM617.928 582.62h35.31c4.88 0 8.828-3.948 8.828-8.828s-3.948-8.828-8.828-8.828h-35.31c-4.88 0-8.828 3.948-8.828 8.828s3.95 8.828 8.828 8.828zM653.24 494.344a8.822 8.822 0 0 0-8.828 8.828v35.31c0 4.88 3.948 8.828 8.828 8.828s8.828-3.948 8.828-8.828v-35.31a8.824 8.824 0 0 0-8.828-8.828zM617.928 335.448h35.31a8.822 8.822 0 0 0 8.828-8.828 8.822 8.822 0 0 0-8.828-8.828h-35.31a8.822 8.822 0 0 0-8.828 8.828 8.824 8.824 0 0 0 8.828 8.828zM653.24 353.104a8.822 8.822 0 0 0-8.828 8.828v35.31c0 4.88 3.948 8.828 8.828 8.828s8.828-3.948 8.828-8.828v-35.31a8.824 8.824 0 0 0-8.828-8.828zM511.998 564.966h-35.31c-4.88 0-8.828 3.948-8.828 8.828s3.948 8.828 8.828 8.828h35.31c4.88 0 8.828-3.948 8.828-8.828s-3.948-8.828-8.828-8.828zM406.066 353.104a8.822 8.822 0 0 0-8.828 8.828v35.31c0 4.88 3.948 8.828 8.828 8.828s8.828-3.948 8.828-8.828v-35.31a8.822 8.822 0 0 0-8.828-8.828zM441.378 564.966h-35.31c-4.88 0-8.828 3.948-8.828 8.828s3.948 8.828 8.828 8.828h35.31c4.88 0 8.828-3.948 8.828-8.828s-3.95-8.828-8.828-8.828zM397.24 538.482c0 4.88 3.948 8.828 8.828 8.828s8.828-3.948 8.828-8.828v-35.31c0-4.88-3.948-8.828-8.828-8.828s-8.828 3.948-8.828 8.828v35.31zM653.24 423.724a8.822 8.822 0 0 0-8.828 8.828v35.31c0 4.88 3.948 8.828 8.828 8.828s8.828-3.948 8.828-8.828v-35.31a8.824 8.824 0 0 0-8.828-8.828zM547.308 335.448h35.31a8.822 8.822 0 0 0 8.828-8.828 8.822 8.822 0 0 0-8.828-8.828h-35.31a8.822 8.822 0 0 0-8.828 8.828 8.822 8.822 0 0 0 8.828 8.828zM397.24 326.62a8.822 8.822 0 0 0 8.828 8.828h35.31a8.822 8.822 0 0 0 8.828-8.828 8.822 8.822 0 0 0-8.828-8.828h-35.31a8.824 8.824 0 0 0-8.828 8.828zM547.308 582.62h35.31c4.88 0 8.828-3.948 8.828-8.828s-3.948-8.828-8.828-8.828h-35.31c-4.88 0-8.828 3.948-8.828 8.828s3.948 8.828 8.828 8.828zM467.86 326.62a8.822 8.822 0 0 0 8.828 8.828h35.31a8.822 8.822 0 0 0 8.828-8.828 8.822 8.822 0 0 0-8.828-8.828h-35.31a8.824 8.824 0 0 0-8.828 8.828z" fill="#ffffff" p-id="12424"></path><path d="M459.916 386.594l-0.14 10.61-0.742 57.068c-0.066 5.154 5.214 8.654 9.934 6.58l17.562-7.708 15.682 35.718a8.828 8.828 0 0 0 11.636 4.534 8.846 8.846 0 0 0 4.536-11.636l-15.68-35.714 17.556-7.706c4.718-2.072 5.718-8.326 1.88-11.768l-46.33-41.508-4.082-3.656c-4.53-4.06-11.734-0.898-11.812 5.186z" fill="#ffffff" p-id="12425"></path></svg>